<svg width="132.3mm" height="27.01mm" version="1.1" viewBox="0 0 132.3 27.01" xmlns="http://www.w3.org/2000/svg">
  <g transform="translate(8.609e-6 -270)">
    <g aria-label="Rikki-Lea James">
      <path d="m3.758 291.9c0.02974-0.4462 0.05949-0.8626 0.05949-1.279 2.469-2.617 5.056-5.146 7.406-7.882 1.695-2.023 3.48-4.194 4.67-6.782 0.3867-0.8328 0.8626-1.874 0.7733-3.064-0.119-1.368-1.249-2.171-2.855-2.052-1.636 0.0892-3.183 0.7733-4.432 1.428-1.309 0.7138-2.469 1.487-3.569 2.231 0.1487-0.5949 0.2677-1.19 0.3867-1.785 0.02974-0.1487 0.1785-0.119 0.1785-0.2677 0-0.5056 0.3272-0.922 0.1487-1.368-0.4462-0.3569-0.9815 0.119-1.041 0.5949-0.4164 1.16-0.6841 2.469-0.9518 3.807-1.101 0.9518-2.528 2.142-3.599 3.331-0.3272 0.3272-0.8626 0.8923-0.922 1.368-0.08923 0.5354 0.3867 1.041 0.9518 0.9815 0.5354-0.0595 1.041-1.011 0.6841-1.547 0.8031-0.9815 1.695-1.993 2.647-2.766-0.8031 4.253-1.13 8.953-1.398 13.74-0.1785 0.238-0.4759 0.5056-0.7436 0.8328-0.2379 0.2974-0.5949 0.6544-0.5949 1.071 0.02974 0.4462 0.5651 0.7138 1.219 0.5949 0.02974 0.9815-0.08923 2.29 0.05949 3.212 0.02974 0.2677 0.05949 0.6841 0.4164 0.6841h0.05949c0.3569-0.0297 0.3272-0.4759 0.3272-0.8031 0-1.101 0-2.32 0.08923-3.302 1.695-0.4164 3.302-0.8923 4.997-1.309 1.695-0.3867 3.45-0.8328 5.473-0.8626 0.119 0.0595 0.2974 0.0595 0.4164 0.119 0.2974 0.0595 0.3867 0.3867 0.8031 0.3569 0.08923-0.0595 0.1487-0.1487 0.2082-0.238 0.02974-0.2974-0.119-0.4759-0.2677-0.5949-0.8923-0.8328-2.766-0.4759-4.164-0.238-2.558 0.4164-5.205 1.16-7.436 1.785zm0.5651-2.736c-0.119 0.0892-0.2974 0.3867-0.4164 0.3569 0.2974-4.848 0.8626-9.429 1.666-13.8 1.636-1.398 3.51-2.677 5.741-3.599 0.7138-0.3272 1.547-0.6246 2.409-0.6841 1.16-0.0892 2.052 0.2082 2.32 1.041 0.3272 1.011-0.1785 2.231-0.5056 3.004-0.4164 0.922-0.8328 1.666-1.309 2.379-0.9518 1.487-2.052 2.855-3.183 4.164-1.16 1.338-2.32 2.617-3.539 3.867-1.041 1.101-2.112 2.171-3.183 3.272zm-1.874 3.064c0.08923-0.2082 0.2379-0.3569 0.3569-0.5354 0.08923 0.0595-0.02974 0.2974 0.02974 0.4462-0.119 0.0297-0.2379 0.0892-0.3867 0.0892z"/>
      <path d="m16.38 279.6c0.2974-0.5949-0.6544-0.7138-0.6544-0.2082 0 0.1487 0.08923 0.238 0.1785 0.3272 0.2082 0 0.3569-0.0595 0.4759-0.119zm-0.8923 9.488c-0.4164-0.6544-0.3272-1.874-0.2379-2.766 0.119-1.011 0.2677-1.904 0.5354-2.677 0.02974-0.119 0.2082-0.0892 0.2082-0.2677 0-0.2082-0.05949-0.3867-0.119-0.5056-0.8923-0.5949-1.16 0.922-1.309 1.636-0.3272 1.457-0.6246 4.372 0.3272 5.175 0.119 0.0595 0.2082 0.119 0.2974 0.1785 0.6544 0.119 1.011-0.238 1.338-0.5056 0.8626-0.8626 1.457-1.963 2.142-2.974 0.4759-0.8328 1.011-1.576 1.457-2.409 0.119-0.238 0.5056-0.5056 0.3569-0.7733-0.4164-0.0595-0.5056 0.3867-0.6841 0.6246-0.2082 0.238-0.3569 0.5354-0.5651 0.8328-0.3569 0.5354-0.6841 1.101-1.071 1.636-0.3569 0.5354-0.7436 1.071-1.16 1.576-0.3867 0.5056-0.8031 1.071-1.517 1.219z"/>
      <path d="m20.9 283.2c0.2379-1.695 0.4759-3.421 0.8626-4.967 0.08923-0.5354 0.3867-1.011 0.3272-1.606-0.1487-0.3569-0.7138-0.1487-0.8626 0.119-0.922 2.201-1.16 5.116-1.547 7.852-0.4462 0.6544-1.071 1.101-1.101 2.142 0.08923 0.4462 0.4164 0.6246 0.7733 0.7733-0.1487 1.309-0.1487 3.093-0.1785 4.67 0 0.4164-0.08923 1.16 0.2974 1.219 0.4462 0.0892 0.5354-0.4462 0.5949-0.8031 0.08923-0.4462 0.1487-0.8031 0.1785-1.219-0.2082-0.3272-0.119-0.7138-0.05949-1.219 0.05949-0.8626 0.1487-1.814 0.2082-2.528 2.082-0.0892 3.51-0.9815 4.997-1.785 1.101-0.5949 2.261-1.16 3.212-1.874 0.2677-0.2082 0.7733-0.5056 0.7436-0.922-0.4164-0.1487-0.6841 0.2677-0.9815 0.4759-0.3272 0.2082-0.6544 0.4164-0.9815 0.5949-1.071 0.5651-2.082 1.13-3.153 1.666-1.071 0.5056-2.261 1.041-3.777 0.9815 0.08923-0.5651 0.1487-1.219 0.2082-1.814 0.9815-1.13 2.052-2.201 3.212-3.123 0.2082-0.3569 1.16-0.5056 1.041-1.13-0.119-0.4759-0.922-0.2082-1.19 0.0297-0.8031 0.5354-1.487 1.219-2.171 1.844-0.2379 0.2082-0.3867 0.4759-0.6544 0.6246z"/>
      <path d="m29.32 283.2c0.2379-1.695 0.4759-3.421 0.8626-4.967 0.08923-0.5354 0.3867-1.011 0.3272-1.606-0.1487-0.3569-0.7138-0.1487-0.8626 0.119-0.922 2.201-1.16 5.116-1.547 7.852-0.4462 0.6544-1.071 1.101-1.101 2.142 0.08923 0.4462 0.4164 0.6246 0.7733 0.7733-0.1487 1.309-0.1487 3.093-0.1785 4.67 0 0.4164-0.08923 1.16 0.2974 1.219 0.4462 0.0892 0.5354-0.4462 0.5949-0.8031 0.08923-0.4462 0.1487-0.8031 0.1785-1.219-0.2082-0.3272-0.119-0.7138-0.05949-1.219 0.05949-0.8626 0.1487-1.814 0.2082-2.528 2.082-0.0892 3.51-0.9815 4.997-1.785 1.101-0.5949 2.261-1.16 3.212-1.874 0.2677-0.2082 0.7733-0.5056 0.7436-0.922-0.4164-0.1487-0.6841 0.2677-0.9815 0.4759-0.3272 0.2082-0.6544 0.4164-0.9815 0.5949-1.071 0.5651-2.082 1.13-3.153 1.666-1.071 0.5056-2.261 1.041-3.777 0.9815 0.08923-0.5651 0.1487-1.219 0.2082-1.814 0.9815-1.13 2.052-2.201 3.212-3.123 0.2082-0.3569 1.16-0.5056 1.041-1.13-0.119-0.4759-0.922-0.2082-1.19 0.0297-0.8031 0.5354-1.487 1.219-2.171 1.844-0.2379 0.2082-0.3867 0.4759-0.6544 0.6246z"/>
      <path d="m38.34 279.6c0.2974-0.5949-0.6544-0.7138-0.6544-0.2082 0 0.1487 0.08923 0.238 0.1785 0.3272 0.2082 0 0.3569-0.0595 0.4759-0.119zm-0.8923 9.488c-0.4164-0.6544-0.3272-1.874-0.2379-2.766 0.119-1.011 0.2677-1.904 0.5354-2.677 0.02974-0.119 0.2082-0.0892 0.2082-0.2677 0-0.2082-0.05949-0.3867-0.119-0.5056-0.8923-0.5949-1.16 0.922-1.309 1.636-0.3272 1.457-0.6246 4.372 0.3272 5.175 0.119 0.0595 0.2082 0.119 0.2974 0.1785 0.6544 0.119 1.011-0.238 1.338-0.5056 0.8626-0.8626 1.457-1.963 2.142-2.974 0.4759-0.8328 1.011-1.576 1.457-2.409 0.119-0.238 0.5056-0.5056 0.3569-0.7733-0.4164-0.0595-0.5056 0.3867-0.6841 0.6246-0.2082 0.238-0.3569 0.5354-0.5651 0.8328-0.3569 0.5354-0.6841 1.101-1.071 1.636-0.3569 0.5354-0.7436 1.071-1.16 1.576-0.3867 0.5056-0.8031 1.071-1.517 1.219z"/>
      <path d="m43.09 283.6c0.1785 0.4164 0.7733 0.238 1.19 0.1785 0.9518-0.119 1.814-0.2082 2.796-0.2677 0.4462 0 1.071 0.0892 1.16-0.3569-0.08923-0.4164-0.7436-0.3272-1.219-0.2974-0.2974 0.0297-0.7436 0.0297-1.19 0.0595-0.3272 0-0.7138 0.0298-1.071 0.0595-0.6841 0.0297-1.636-0.0595-1.666 0.6246z"/>
      <path d="m51.44 295.2c0.922 0.2677 2.112 0.0297 3.093-0.119 0.7436-0.1487 1.457-0.2974 2.171-0.4759 1.041-0.2677 2.112-0.5354 3.183-0.8328 0.2082-0.0892 0.8923-0.2082 0.8328-0.5056-0.05949-0.2082-0.3272-0.1487-0.4462-0.119-2.112 0.3867-3.777 0.922-5.949 1.249-0.6841 0.119-1.814 0.2974-2.439 0.0892-0.6246-0.238-0.6246-1.457-0.5949-2.379 0.02974-0.9815 0.119-1.904 0.2379-2.707 0.6841-5.235 1.814-9.875 3.153-14.49 0.1785-0.8328 0.7138-1.785 0.3867-2.736-0.1785-0.5056-1.279-0.6246-1.338 0.0892 0.02974 0.119 0.05949 0.2082 0.119 0.2677 0.119 0.0892 0.1785 0.0297 0.2082 0.1785 0.05949 0.2677-0.2379 1.071-0.3272 1.309-1.398 4.551-2.498 9.31-3.272 14.43-0.1487 0.922-0.2677 1.963-0.2974 2.945-0.02974 1.666 0.05949 3.361 1.279 3.807z"/>
      <path d="m56.9 284.5c0.8328-0.0297 1.428-0.3569 1.904-0.7733 0.3867-0.3272 0.7436-0.8328 0.7138-1.457-0.119-0.4462-0.5651-0.6544-0.9815-0.5651-1.011 0.238-1.785 1.279-2.29 2.023-0.1785-0.0595-0.4759-0.2677-0.6544-0.0595 0 0.3272 0.3272 0.3569 0.4462 0.5651-0.2082 0.5056-0.3867 1.041-0.3272 1.755 0.119 1.041 0.9518 1.606 2.052 1.487 1.101-0.119 2.023-0.7436 2.885-1.309 0.8923-0.5949 1.755-1.19 2.469-1.725 0.2082-0.2082 0.5354-0.3867 0.8031-0.6246 0.2082-0.1785 0.6246-0.4164 0.4759-0.8031-0.2974-0.0595-0.5651 0.2082-0.8031 0.3867-0.7436 0.5651-1.487 1.13-2.29 1.606-0.4462 0.3272-1.011 0.6544-1.636 0.9518-0.7733 0.3569-1.785 0.8923-2.766 0.5056-0.5056-0.3867-0.2974-1.517 0-1.963zm0.4164-0.7733c0.2974-0.5056 0.7733-1.041 1.398-1.279 0.02974 0.3272-0.2677 0.5949-0.5056 0.7733-0.2677 0.2082-0.5949 0.3867-0.8923 0.5056z"/>
      <path d="m74.58 282.8c-0.3272-0.3272-0.6544 0.238-0.8923 0.3867-0.2379 0.2974-0.4759 0.5651-0.7138 0.8626-0.922 1.16-1.755 2.379-2.736 3.51-0.5354 0.5056-0.9518 1.101-1.814 1.309-0.3569-0.2974-0.3272-0.8626-0.3272-1.309 0-1.071 0.1487-2.082 0.2677-3.034 0.08923-0.8328 0.2974-1.785-0.2082-2.201-0.119-0.0595-0.2677-0.0595-0.4164-0.0595-0.02974 0-0.02974 0.0297-0.05949 0.0297-0.4164 0.1487-0.8031 0.6246-1.101 0.9815-0.7138 0.7436-1.309 1.398-2.052 2.023-0.3569 0.3272-0.7436 0.6841-1.279 0.7436 0-0.7138 0.2379-1.13 0.5056-1.636 0.2082-0.3272 0.6246-1.101 1.13-1.041 0.4462 0.0297 0.2974 0.8626 0.7733 0.7436 0.3272-0.0892 0.02974-0.8031-0.119-1.011-0.4164-0.6544-1.309-0.4462-1.785-0.0297-0.7138 0.5949-1.398 1.874-1.428 3.064 0.02974 0.2082 0.119 0.4164 0.2379 0.5949 0.119 0.119 0.2974 0.1785 0.4759 0.2677 0.6841 0.0595 1.19-0.2974 1.666-0.6246 1.101-0.8328 1.904-2.052 2.826-2.855-0.08923 1.814-0.7436 4.194 0.02974 5.711 0.2082 0.2677 0.4462 0.4759 0.8923 0.4759 1.101-0.1785 1.695-0.9518 2.261-1.695 0.4462-0.5949 0.8923-1.19 1.279-1.755 0.4462-0.5949 0.8626-1.19 1.279-1.785 0.3569-0.4164 0.6841-0.8626 1.041-1.249 0.119-0.0892 0.3569-0.2082 0.2677-0.4164z"/>
      <path d="m90.06 274c0.02974-1.071 0.05949-2.142 0.05949-3.212 0.05949-0.2082 0.3867-0.1487 0.3272-0.4759-0.08923-0.2677-0.5056-0.3569-0.8328-0.3272-0.1487 0.0892-0.2082 0.2082-0.3272 0.2974-0.3569 1.101-0.2974 2.617-0.3569 3.986-4.105 1.13-8.179 2.29-11.78 3.926-0.2379 0.119-0.5949 0.1487-0.5949 0.4759 0.1785 0.2974 0.5354 0.1487 0.7436 0.0892 0.2677-0.0892 0.5354-0.1785 0.7733-0.2677 3.48-1.219 7.079-2.498 10.8-3.361-0.1487 3.956-0.4759 7.971-1.13 11.57-0.4759 2.677-1.041 5.324-2.171 7.347-0.3867 0.6841-0.8031 1.368-1.517 1.666-0.4759 0.119-0.7436-0.119-1.011-0.2974-1.071-1.011-1.576-2.945-1.904-4.759-0.119-0.6544-0.2974-1.368-0.2082-2.023 0.02974-0.3272 0.3272-0.4759 0.1487-0.8031-0.5056-0.1487-0.6841 0.4164-0.7138 0.8031-0.05949 0.4759 0 1.071 0.05949 1.487 0.119 0.9518 0.3272 1.963 0.5056 2.766 0.3867 1.755 1.071 3.361 2.677 3.837 0.2082-0.0298 0.4462 0.0297 0.6246-0.0298 0.8923-0.1785 1.457-0.8328 1.933-1.517 1.428-2.052 2.082-4.878 2.647-7.733 0.7733-3.837 1.13-8.179 1.219-12.61 1.785-0.5056 3.658-0.8626 5.562-1.309 1.576-0.3569 3.212-0.8328 5.027-0.922 0.2082 0 0.5949 0.0595 0.5651-0.2677 0-0.3272-0.3569-0.2677-0.5651-0.2677-0.2677 0-0.5651 0.0297-0.7733 0.0297-3.51 0.4164-6.722 1.219-9.786 1.904z"/>
      <path d="m102.1 282.8c-0.3272-0.3272-0.6544 0.238-0.8923 0.3867-0.2379 0.2974-0.4759 0.5651-0.7138 0.8626-0.9221 1.16-1.755 2.379-2.736 3.51-0.5354 0.5056-0.9518 1.101-1.814 1.309-0.3569-0.2974-0.3272-0.8626-0.3272-1.309 0-1.071 0.1487-2.082 0.2677-3.034 0.08923-0.8328 0.2974-1.785-0.2082-2.201-0.119-0.0595-0.2677-0.0595-0.4164-0.0595-0.02974 0-0.02974 0.0297-0.05949 0.0297-0.4164 0.1487-0.8031 0.6246-1.101 0.9815-0.7138 0.7436-1.309 1.398-2.052 2.023-0.3569 0.3272-0.7436 0.6841-1.279 0.7436 0-0.7138 0.2379-1.13 0.5056-1.636 0.2082-0.3272 0.6246-1.101 1.13-1.041 0.4462 0.0297 0.2974 0.8626 0.7733 0.7436 0.3272-0.0892 0.02974-0.8031-0.119-1.011-0.4164-0.6544-1.309-0.4462-1.785-0.0297-0.7138 0.5949-1.398 1.874-1.428 3.064 0.02974 0.2082 0.119 0.4164 0.2379 0.5949 0.119 0.119 0.2974 0.1785 0.4759 0.2677 0.6841 0.0595 1.19-0.2974 1.666-0.6246 1.101-0.8328 1.904-2.052 2.826-2.855-0.08923 1.814-0.7436 4.194 0.02974 5.711 0.2082 0.2677 0.4462 0.4759 0.8923 0.4759 1.101-0.1785 1.695-0.9518 2.261-1.695 0.4462-0.5949 0.8923-1.19 1.279-1.755 0.4462-0.5949 0.8626-1.19 1.279-1.785 0.3569-0.4164 0.6841-0.8626 1.041-1.249 0.119-0.0892 0.3569-0.2082 0.2677-0.4164z"/>
      <path d="m106.6 286.6c-0.2677-0.8626-0.3569-2.112-0.4164-3.242-0.0595-1.16 0.0297-2.439-0.7138-2.974-0.6841-0.1487-0.9518 0.5651-1.16 1.071-1.041 2.528-1.547 6.157-2.439 8.536-0.3569-2.707-0.0297-5.889 0.6544-8.06 0.0595 0.1487 0.1487 0.3867 0.238 0.5949 0.0595 0.1785 0.0892 0.5056 0.3867 0.4759 0.2082-0.0892 0.0595-0.2974 0-0.4759-0.119-0.5651-0.119-1.309-0.6841-1.398-0.3867 0.0595-0.5651 0.4759-0.7138 0.8328-0.119 0.3867-0.238 0.8328-0.3272 1.249-0.3867 1.755-0.5949 3.539-0.5056 5.681 0.0297 0.7733 0.119 2.231 0.8328 2.32 0.2677 0.0297 0.3569-0.0892 0.5354-0.1785 0.8328-1.219 1.041-3.064 1.457-4.729 0.4462-1.636 0.7436-3.391 1.428-4.759 0.238 1.963 0 4.372 0.7733 5.77 0.2677 0.2677 0.6544 0.3867 1.011 0.2082 0.6544-0.2974 1.071-1.279 1.428-1.785 0.2974-0.4759 0.6246-1.011 0.922-1.487 0.0892-0.1487 0.1785-0.3569 0.3272-0.4164 0.2082 1.309 0.3272 3.302 1.963 3.004 0.119-0.0595 0.238-0.119 0.3867-0.1487 0.9518-0.6544 1.814-1.695 2.677-2.588 0.238-0.2379 1.19-1.071 0.3867-1.309-0.4759 0.0892-0.6246 0.5056-0.9518 0.7436-0.922 0.7733-1.636 1.755-2.855 2.261-0.7733-0.7733-0.1785-2.915-1.517-3.153-0.3569 0.0297-0.5354 0.2677-0.7436 0.4462-0.3867 0.5651-0.7733 1.19-1.16 1.814-0.3569 0.6246-0.6841 1.309-1.219 1.695z"/>
      <path d="m114.7 284.5c0.8328-0.0297 1.428-0.3569 1.904-0.7733 0.3867-0.3272 0.7436-0.8328 0.7138-1.457-0.119-0.4462-0.5651-0.6544-0.9815-0.5651-1.011 0.238-1.785 1.279-2.29 2.023-0.1785-0.0595-0.4759-0.2677-0.6544-0.0595 0 0.3272 0.3272 0.3569 0.4462 0.5651-0.2082 0.5056-0.3867 1.041-0.3272 1.755 0.119 1.041 0.9518 1.606 2.052 1.487 1.101-0.119 2.023-0.7436 2.885-1.309 0.8923-0.5949 1.755-1.19 2.469-1.725 0.2082-0.2082 0.5354-0.3867 0.8031-0.6246 0.2082-0.1785 0.6246-0.4164 0.4759-0.8031-0.2974-0.0595-0.5651 0.2082-0.8031 0.3867-0.7436 0.5651-1.487 1.13-2.29 1.606-0.4462 0.3272-1.011 0.6544-1.636 0.9518-0.7733 0.3569-1.785 0.8923-2.766 0.5056-0.5056-0.3867-0.2974-1.517 0-1.963zm0.4164-0.7733c0.2974-0.5056 0.7733-1.041 1.398-1.279 0.0297 0.3272-0.2677 0.5949-0.5056 0.7733-0.2677 0.2082-0.5949 0.3867-0.8923 0.5056z"/>
      <path d="m125 281.2c0.1487 0.1785 0.0297 0.7138 0.3272 0.6841 0.2677 0 0.3272-1.16 0.119-1.338-0.6544-0.5354-1.606 0.0892-2.171 0.4759-0.4759 0.3569-0.8923 0.7436-1.19 1.101-0.6841 0.8626-1.309 1.874-1.309 3.272 0 1.16 0.4759 2.112 0.9518 2.945 0.4759 0.8626 1.041 1.636 1.428 2.469-0.4164 0.5056-0.922 1.011-1.338 1.606-0.5056 0.6841-1.041 1.428-1.011 2.558 0.0298 0.1785 0.119 0.3272 0.1785 0.4462 0.0892 0.0892 0.1785 0.1785 0.2677 0.238 0.2082 0.119 0.5354 0.2082 0.7733 0.2082 1.13-0.0297 2.142-0.9518 2.498-1.785 0.5056-1.101 0.119-2.498-0.3272-3.51 1.19-1.368 2.588-2.528 3.896-3.777 1.041-0.8626 2.052-1.785 3.153-2.617 0.1785-0.119 0.3867-0.2379 0.5651-0.3867 0.1785-0.119 0.4759-0.238 0.4462-0.5056-0.2082-0.238-0.4462 0.0297-0.5949 0.119-1.368 0.8626-2.617 1.963-3.748 2.974-0.7138 0.5651-1.368 1.16-2.023 1.785-0.3272 0.2974-0.6841 0.5651-1.011 0.8923-0.2974 0.3272-0.6246 0.6544-0.9518 0.8923-0.5056-1.338-1.814-2.558-1.904-4.313-0.0892-1.368 0.5354-2.112 1.071-2.885 0.5651-0.5949 1.16-1.249 1.904-1.547zm-2.826 11.84c0.3569-0.5949 0.8031-1.101 1.249-1.606 0-0.0297 0.0297 0 0.0297 0 0.2082 0.5651 0.4462 1.13 0.3569 1.844-0.0892 1.011-0.8626 1.606-1.666 1.844-0.9518 0.1785-0.6841-0.7436-0.4759-1.219 0.1785-0.3867 0.3272-0.6841 0.5056-0.8626z"/>
    </g>
  </g>
</svg>
